<svg width="20" height="20" viewBox="0 0 20 20" fill="none" xmlns="http://www.w3.org/2000/svg">
<path opacity="0.4" d="M2.52746 8.33333L17.4726 8.33333C18.3227 8.33333 18.6565 7.20715 17.9492 6.72549L10.9532 1.96146C10.376 1.5684 9.62404 1.5684 9.04684 1.96146L2.05087 6.72549C1.34355 7.20715 1.67737 8.33333 2.52746 8.33333Z" fill="#28303F"/>
<rect x="5" y="8.33334" width="3.33333" height="6.66667" fill="#28303F"/>
<rect x="11.6667" y="8.33334" width="3.33333" height="6.66667" fill="#28303F"/>
<path opacity="0.4" d="M16.1517 15C16.4673 15 16.7559 15.1783 16.897 15.4607L17.7303 17.1273C18.0074 17.6814 17.6045 18.3333 16.985 18.3333L3.01505 18.3333C2.39556 18.3333 1.99265 17.6814 2.26969 17.1273L3.10302 15.4607C3.24418 15.1783 3.53274 15 3.84838 15L16.1517 15Z" fill="#28303F"/>
</svg>
