<svg width="25" height="24" viewBox="0 0 25 24" fill="none" xmlns="http://www.w3.org/2000/svg">
<path fill-rule="evenodd" clip-rule="evenodd" d="M6.12359 2.75C4.31858 2.75 2.85534 4.20507 2.85534 6V8C2.85534 8.41421 2.51766 8.75 2.10112 8.75C1.68458 8.75 1.34691 8.41421 1.34691 8V6C1.34691 3.37665 3.4855 1.25 6.12359 1.25H8.13483C8.55137 1.25 8.88904 1.58579 8.88904 2C8.88904 2.41421 8.55137 2.75 8.13483 2.75H6.12359ZM15.4256 2C15.4256 1.58579 15.7632 1.25 16.1798 1.25H18.191C20.8291 1.25 22.9677 3.37665 22.9677 6V8C22.9677 8.41421 22.63 8.75 22.2135 8.75C21.7969 8.75 21.4593 8.41421 21.4593 8V6C21.4593 4.20507 19.996 2.75 18.191 2.75H16.1798C15.7632 2.75 15.4256 2.41421 15.4256 2ZM2.10112 15.1944C2.51766 15.1944 2.85534 15.5302 2.85534 15.9444V18C2.85534 19.7949 4.31858 21.25 6.12359 21.25H8.13483C8.55137 21.25 8.88904 21.5858 8.88904 22C8.88904 22.4142 8.55137 22.75 8.13483 22.75H6.12359C3.4855 22.75 1.34691 20.6234 1.34691 18V15.9444C1.34691 15.5302 1.68458 15.1944 2.10112 15.1944ZM22.2135 15.1944C22.63 15.1944 22.9677 15.5302 22.9677 15.9444V18C22.9677 20.6234 20.8291 22.75 18.191 22.75H16.1798C15.7632 22.75 15.4256 22.4142 15.4256 22C15.4256 21.5858 15.7632 21.25 16.1798 21.25H18.191C19.996 21.25 21.4593 19.7949 21.4593 18V15.9444C21.4593 15.5302 21.7969 15.1944 22.2135 15.1944Z" fill="#28303F"/>
<path opacity="0.4" fill-rule="evenodd" clip-rule="evenodd" d="M6.375 12C6.375 11.5858 6.71267 11.25 7.12921 11.25H17.1854C17.6019 11.25 17.9396 11.5858 17.9396 12C17.9396 12.4142 17.6019 12.75 17.1854 12.75H7.12921C6.71267 12.75 6.375 12.4142 6.375 12Z" fill="#28303F"/>
<path opacity="0.4" fill-rule="evenodd" clip-rule="evenodd" d="M16.1798 6.75C16.5963 6.75 16.934 7.08579 16.934 7.5V9.5C16.934 9.91421 16.5963 10.25 16.1798 10.25C15.7632 10.25 15.4256 9.91421 15.4256 9.5V7.5C15.4256 7.08579 15.7632 6.75 16.1798 6.75Z" fill="#28303F"/>
<path opacity="0.4" fill-rule="evenodd" clip-rule="evenodd" d="M12.1573 6.75C12.5738 6.75 12.9115 7.08579 12.9115 7.5V9.5C12.9115 9.91421 12.5738 10.25 12.1573 10.25C11.7408 10.25 11.4031 9.91421 11.4031 9.5V7.5C11.4031 7.08579 11.7408 6.75 12.1573 6.75Z" fill="#28303F"/>
<path opacity="0.4" fill-rule="evenodd" clip-rule="evenodd" d="M8.13483 6.75C8.55137 6.75 8.88904 7.08579 8.88904 7.5V9.5C8.88904 9.91421 8.55137 10.25 8.13483 10.25C7.71829 10.25 7.38062 9.91421 7.38062 9.5V7.5C7.38062 7.08579 7.71829 6.75 8.13483 6.75Z" fill="#28303F"/>
<path opacity="0.4" fill-rule="evenodd" clip-rule="evenodd" d="M12.1573 13.75C12.5738 13.75 12.9115 14.0858 12.9115 14.5V16.5C12.9115 16.9142 12.5738 17.25 12.1573 17.25C11.7408 17.25 11.4031 16.9142 11.4031 16.5V14.5C11.4031 14.0858 11.7408 13.75 12.1573 13.75Z" fill="#28303F"/>
<path opacity="0.4" fill-rule="evenodd" clip-rule="evenodd" d="M16.1798 13.75C16.5963 13.75 16.934 14.0858 16.934 14.5V16.5C16.934 16.9142 16.5963 17.25 16.1798 17.25C15.7632 17.25 15.4256 16.9142 15.4256 16.5V14.5C15.4256 14.0858 15.7632 13.75 16.1798 13.75Z" fill="#28303F"/>
<path opacity="0.4" fill-rule="evenodd" clip-rule="evenodd" d="M8.13483 13.75C8.55137 13.75 8.88904 14.0858 8.88904 14.5V16.5C8.88904 16.9142 8.55137 17.25 8.13483 17.25C7.71829 17.25 7.38062 16.9142 7.38062 16.5V14.5C7.38062 14.0858 7.71829 13.75 8.13483 13.75Z" fill="#28303F"/>
</svg>
