<svg width="18" height="18" viewBox="0 0 18 18" fill="none" xmlns="http://www.w3.org/2000/svg">
<path opacity="0.4" d="M5.66663 4C5.66663 2.15905 7.15901 0.666664 8.99996 0.666664H14C15.8409 0.666664 17.3333 2.15905 17.3333 4V9C17.3333 10.8409 15.8409 12.3333 14 12.3333H8.99996C7.15901 12.3333 5.66663 10.8409 5.66663 9V4Z" fill="#070707"/>
<path d="M0.666656 9C0.666656 7.15905 2.15904 5.66666 3.99999 5.66666H9.00002C10.841 5.66666 12.3334 7.15905 12.3334 9V14C12.3334 15.8409 10.841 17.3333 9.00002 17.3333H3.99999C2.15904 17.3333 0.666656 15.8409 0.666656 14V9Z" fill="#070707"/>
</svg>
