<svg width="14" height="14" viewBox="0 0 14 14" fill="none" xmlns="http://www.w3.org/2000/svg">
<path opacity="0.4" d="M13.6667 7C13.6667 10.6819 10.6819 13.6667 7.00001 13.6667C3.31811 13.6667 0.333344 10.6819 0.333344 7C0.333344 3.3181 3.31811 0.333334 7.00001 0.333334C10.6819 0.333334 13.6667 3.3181 13.6667 7Z" fill="#28303F"/>
<path fill-rule="evenodd" clip-rule="evenodd" d="M7 3.83333C7.27614 3.83333 7.5 4.05719 7.5 4.33333V5C7.5 5.27614 7.27614 5.5 7 5.5C6.72386 5.5 6.5 5.27614 6.5 5V4.33333C6.5 4.05719 6.72386 3.83333 7 3.83333ZM7 6.16667C7.27614 6.16667 7.5 6.39052 7.5 6.66667V9.66667C7.5 9.94281 7.27614 10.1667 7 10.1667C6.72386 10.1667 6.5 9.94281 6.5 9.66667V6.66667C6.5 6.39052 6.72386 6.16667 7 6.16667Z" fill="#28303F"/>
</svg>
