<svg width="140" height="37" viewBox="0 0 140 37" fill="none" xmlns="http://www.w3.org/2000/svg">
<path d="M24.9773 15.9091C24.9773 18.7301 24.4489 21.1463 23.392 23.1577C22.3438 25.1605 20.9119 26.6946 19.0966 27.7599C17.2898 28.8253 15.2401 29.358 12.9474 29.358C10.6548 29.358 8.60085 28.8253 6.78551 27.7599C4.97869 26.6861 3.54688 25.1477 2.49006 23.1449C1.44176 21.1335 0.917614 18.7216 0.917614 15.9091C0.917614 13.0881 1.44176 10.6761 2.49006 8.6733C3.54688 6.66193 4.97869 5.12358 6.78551 4.05824C8.60085 2.9929 10.6548 2.46023 12.9474 2.46023C15.2401 2.46023 17.2898 2.9929 19.0966 4.05824C20.9119 5.12358 22.3438 6.66193 23.392 8.6733C24.4489 10.6761 24.9773 13.0881 24.9773 15.9091ZM20.2088 15.9091C20.2088 13.9233 19.8977 12.2486 19.2756 10.8849C18.6619 9.51278 17.8097 8.47727 16.7188 7.77841C15.6278 7.07102 14.3707 6.71733 12.9474 6.71733C11.5241 6.71733 10.267 7.07102 9.17614 7.77841C8.08523 8.47727 7.22869 9.51278 6.60653 10.8849C5.9929 12.2486 5.68608 13.9233 5.68608 15.9091C5.68608 17.8949 5.9929 19.5739 6.60653 20.946C7.22869 22.3097 8.08523 23.3452 9.17614 24.0526C10.267 24.7514 11.5241 25.1009 12.9474 25.1009C14.3707 25.1009 15.6278 24.7514 16.7188 24.0526C17.8097 23.3452 18.6619 22.3097 19.2756 20.946C19.8977 19.5739 20.2088 17.8949 20.2088 15.9091ZM12.9602 36.0696C12.2188 36.0696 11.5838 35.8224 11.0554 35.3281C10.5355 34.8338 10.2756 34.2415 10.2756 33.5511C10.2756 32.8608 10.5355 32.2685 11.0554 31.7741C11.5838 31.2798 12.2145 31.0327 12.9474 31.0327C13.6889 31.0327 14.3196 31.2798 14.8395 31.7741C15.3679 32.2685 15.6321 32.8608 15.6321 33.5511C15.6321 34.2415 15.3679 34.8338 14.8395 35.3281C14.3196 35.8224 13.6932 36.0696 12.9602 36.0696ZM33.4755 22.8381L33.4627 17.2514H34.2042L41.261 9.36364H46.6687L37.9883 19.0284H37.0295L33.4755 22.8381ZM29.2567 29V2.81818H33.8846V29H29.2567ZM41.5806 29L35.1886 20.0639L38.3079 16.804L47.1161 29H41.5806ZM57.6374 29.3835C55.6687 29.3835 53.9684 28.9744 52.5366 28.1562C51.1133 27.3295 50.0181 26.1619 49.2511 24.6534C48.484 23.1364 48.1005 21.3509 48.1005 19.2969C48.1005 17.277 48.484 15.5043 49.2511 13.9787C50.0266 12.4446 51.109 11.2514 52.4982 10.3991C53.8874 9.53835 55.5195 9.10795 57.3945 9.10795C58.6048 9.10795 59.7468 9.30398 60.8207 9.69602C61.9031 10.0795 62.8576 10.6761 63.6843 11.4858C64.5195 12.2955 65.1758 13.3267 65.6531 14.5795C66.1303 15.8239 66.369 17.3068 66.369 19.0284V20.4474H50.2738V17.3281H61.9329C61.9244 16.4418 61.7326 15.6534 61.3576 14.9631C60.9826 14.2642 60.4585 13.7145 59.7852 13.3139C59.1204 12.9134 58.3448 12.7131 57.4585 12.7131C56.5124 12.7131 55.6815 12.9432 54.9656 13.4034C54.2496 13.8551 53.6914 14.4517 53.2908 15.1932C52.8988 15.9261 52.6985 16.7315 52.69 17.6094V20.3324C52.69 21.4744 52.8988 22.4545 53.3164 23.2727C53.734 24.0824 54.3178 24.7045 55.0678 25.1392C55.8178 25.5653 56.6957 25.7784 57.7014 25.7784C58.3746 25.7784 58.984 25.6847 59.5295 25.4972C60.0749 25.3011 60.5479 25.0156 60.9485 24.6406C61.3491 24.2656 61.6516 23.8011 61.8562 23.2472L66.1772 23.733C65.9045 24.875 65.3846 25.8722 64.6175 26.7244C63.859 27.5682 62.8874 28.2244 61.7028 28.6932C60.5181 29.1534 59.163 29.3835 57.6374 29.3835ZM57.2667 36.0696C56.5252 36.0696 55.8903 35.8224 55.3619 35.3281C54.842 34.8338 54.582 34.2415 54.582 33.5511C54.582 32.8608 54.842 32.2685 55.3619 31.7741C55.8903 31.2798 56.521 31.0327 57.2539 31.0327C57.9954 31.0327 58.6261 31.2798 59.146 31.7741C59.6744 32.2685 59.9386 32.8608 59.9386 33.5511C59.9386 34.2415 59.6744 34.8338 59.146 35.3281C58.6261 35.8224 57.9996 36.0696 57.2667 36.0696ZM60.2102 6.78125L63.0739 0.93892H67.5994L63.6747 6.78125H60.2102ZM78.8494 29.3835C76.9318 29.3835 75.2699 28.9616 73.8636 28.1179C72.4574 27.2741 71.3665 26.0937 70.5909 24.5767C69.8239 23.0597 69.4403 21.2869 69.4403 19.2585C69.4403 17.2301 69.8239 15.4531 70.5909 13.9276C71.3665 12.402 72.4574 11.2173 73.8636 10.3736C75.2699 9.52983 76.9318 9.10795 78.8494 9.10795C80.767 9.10795 82.429 9.52983 83.8352 10.3736C85.2415 11.2173 86.3281 12.402 87.0952 13.9276C87.8707 15.4531 88.2585 17.2301 88.2585 19.2585C88.2585 21.2869 87.8707 23.0597 87.0952 24.5767C86.3281 26.0937 85.2415 27.2741 83.8352 28.1179C82.429 28.9616 80.767 29.3835 78.8494 29.3835ZM78.875 25.6761C79.9148 25.6761 80.7841 25.3906 81.483 24.8196C82.1818 24.2401 82.7017 23.4645 83.0426 22.4929C83.392 21.5213 83.5668 20.4389 83.5668 19.2457C83.5668 18.044 83.392 16.9574 83.0426 15.9858C82.7017 15.0057 82.1818 14.2259 81.483 13.6463C80.7841 13.0668 79.9148 12.777 78.875 12.777C77.8097 12.777 76.9233 13.0668 76.2159 13.6463C75.517 14.2259 74.9929 15.0057 74.6435 15.9858C74.3026 16.9574 74.1321 18.044 74.1321 19.2457C74.1321 20.4389 74.3026 21.5213 74.6435 22.4929C74.9929 23.4645 75.517 24.2401 76.2159 24.8196C76.9233 25.3906 77.8097 25.6761 78.875 25.6761ZM95.6765 29L90.1282 9.36364H94.8455L98.2972 23.1705H98.4762L102.005 9.36364H106.671L110.199 23.0938H110.391L113.792 9.36364H118.522L112.961 29H108.141L104.459 15.7301H104.191L100.509 29H95.6765ZM129.756 29.3835C127.838 29.3835 126.176 28.9616 124.77 28.1179C123.364 27.2741 122.273 26.0937 121.497 24.5767C120.73 23.0597 120.347 21.2869 120.347 19.2585C120.347 17.2301 120.73 15.4531 121.497 13.9276C122.273 12.402 123.364 11.2173 124.77 10.3736C126.176 9.52983 127.838 9.10795 129.756 9.10795C131.673 9.10795 133.335 9.52983 134.741 10.3736C136.148 11.2173 137.234 12.402 138.001 13.9276C138.777 15.4531 139.165 17.2301 139.165 19.2585C139.165 21.2869 138.777 23.0597 138.001 24.5767C137.234 26.0937 136.148 27.2741 134.741 28.1179C133.335 28.9616 131.673 29.3835 129.756 29.3835ZM129.781 25.6761C130.821 25.6761 131.69 25.3906 132.389 24.8196C133.088 24.2401 133.608 23.4645 133.949 22.4929C134.298 21.5213 134.473 20.4389 134.473 19.2457C134.473 18.044 134.298 16.9574 133.949 15.9858C133.608 15.0057 133.088 14.2259 132.389 13.6463C131.69 13.0668 130.821 12.777 129.781 12.777C128.716 12.777 127.83 13.0668 127.122 13.6463C126.423 14.2259 125.899 15.0057 125.55 15.9858C125.209 16.9574 125.038 18.044 125.038 19.2457C125.038 20.4389 125.209 21.5213 125.55 22.4929C125.899 23.4645 126.423 24.2401 127.122 24.8196C127.83 25.3906 128.716 25.6761 129.781 25.6761ZM127.979 6.78125L130.842 0.93892H135.368L131.443 6.78125H127.979Z" fill="black"/>
</svg>
