<svg width="21" height="17" viewBox="0 0 21 17" fill="none" xmlns="http://www.w3.org/2000/svg">
<path opacity="0.4" d="M0 4C0 1.79086 1.79086 0 4 0H16C18.2091 0 20 1.79086 20 4V12C20 14.2091 18.2091 16 16 16H4C1.79086 16 0 14.2091 0 12V4Z" fill="#28303F"/>
<circle cx="1" cy="1" r="1" transform="matrix(1 0 0 -1 3 5)" fill="#28303F"/>
<circle cx="2" cy="2" r="2" transform="matrix(1 0 0 -1 8 10)" fill="#28303F"/>
<path fill-rule="evenodd" clip-rule="evenodd" d="M15.3964 13.25L16.1161 12.5303C16.409 12.2374 16.409 11.7626 16.1161 11.4697C15.8232 11.1768 15.3483 11.1768 15.0555 11.4697L13.7626 12.7626C13.0791 13.446 13.0791 14.554 13.7626 15.2374L15.0555 16.5303C15.3483 16.8232 15.8232 16.8232 16.1161 16.5303C16.409 16.2374 16.409 15.7626 16.1161 15.4697L15.3964 14.75L20 14.75C20.4142 14.75 20.75 14.4142 20.75 14C20.75 13.5858 20.4142 13.25 20 13.25L15.3964 13.25Z" fill="#28303F"/>
</svg>
