<svg width="21" height="17" viewBox="0 0 21 17" fill="none" xmlns="http://www.w3.org/2000/svg">
<path opacity="0.4" d="M0 4C0 1.79086 1.79086 0 4 0H16C18.2091 0 20 1.79086 20 4V12C20 14.2091 18.2091 16 16 16H4C1.79086 16 0 14.2091 0 12V4Z" fill="#28303F"/>
<circle cx="1" cy="1" r="1" transform="matrix(1 0 0 -1 3 5)" fill="#28303F"/>
<circle cx="2" cy="2" r="2" transform="matrix(1 0 0 -1 8 10)" fill="#28303F"/>
<path fill-rule="evenodd" clip-rule="evenodd" d="M18.6036 13.25L17.8839 12.5303C17.591 12.2374 17.591 11.7626 17.8839 11.4697C18.1768 11.1768 18.6517 11.1768 18.9445 11.4697L20.2374 12.7626C20.9209 13.446 20.9209 14.554 20.2374 15.2374L18.9445 16.5303C18.6517 16.8232 18.1768 16.8232 17.8839 16.5303C17.591 16.2374 17.591 15.7626 17.8839 15.4697L18.6036 14.75L14 14.75C13.5858 14.75 13.25 14.4142 13.25 14C13.25 13.5858 13.5858 13.25 14 13.25L18.6036 13.25Z" fill="#28303F"/>
</svg>
