<svg width="19" height="21" viewBox="0 0 19 21" fill="none" xmlns="http://www.w3.org/2000/svg">
<path opacity="0.4" d="M0.129211 3C0.129211 1.34315 1.4799 0 3.14607 0H15.2135C16.8796 0 18.2303 1.34315 18.2303 3V11C18.2303 12.6569 16.8796 14 15.2135 14H3.14607C1.4799 14 0.129211 12.6569 0.129211 11V3Z" fill="#28303F"/>
<ellipse cx="1.00562" cy="1" rx="1.00562" ry="1" transform="matrix(1 0 0 -1 14.2079 12)" fill="#28303F"/>
<ellipse cx="1.00562" cy="1" rx="1.00562" ry="1" transform="matrix(1 0 0 -1 2.14044 4)" fill="#28303F"/>
<ellipse cx="2.01124" cy="2" rx="2.01124" ry="2" transform="matrix(1 0 0 -1 7.16855 9)" fill="#28303F"/>
<path fill-rule="evenodd" clip-rule="evenodd" d="M8.42556 17.8964L7.70185 18.6161C7.40731 18.909 6.92976 18.909 6.63523 18.6161C6.34069 18.3232 6.34069 17.8483 6.63523 17.5555L7.93538 16.2626C8.62264 15.5791 9.7369 15.5791 10.4242 16.2626L11.7243 17.5555C12.0189 17.8483 12.0189 18.3232 11.7243 18.6161C11.4298 18.909 10.9522 18.909 10.6577 18.6161L9.93398 17.8964V20C9.93398 20.4142 9.59631 20.75 9.17977 20.75C8.76323 20.75 8.42556 20.4142 8.42556 20V17.8964Z" fill="#28303F"/>
</svg>
