<svg width="16" height="20" viewBox="0 0 16 20" fill="none" xmlns="http://www.w3.org/2000/svg">
<path opacity="0.4" d="M11 0H3C1.34315 0 0 1.34315 0 3V17C0 18.6569 1.34315 20 3 20H11C12.6569 20 14 18.6569 14 17V3C14 1.34315 12.6569 0 11 0Z" fill="white"/>
<path fill-rule="evenodd" clip-rule="evenodd" d="M12 11.75C11.3096 11.75 10.75 12.3096 10.75 13V15C10.75 15.4142 10.4142 15.75 10 15.75C9.58579 15.75 9.25 15.4142 9.25 15V13C9.25 11.4812 10.4812 10.25 12 10.25C13.5188 10.25 14.75 11.4812 14.75 13V15C14.75 15.4142 14.4142 15.75 14 15.75C13.5858 15.75 13.25 15.4142 13.25 15V13C13.25 12.3096 12.6904 11.75 12 11.75Z" fill="white"/>
<path d="M14 14H10C8.89543 14 8 14.8954 8 16V18C8 19.1046 8.89543 20 10 20H14C15.1046 20 16 19.1046 16 18V16C16 14.8954 15.1046 14 14 14Z" fill="white"/>
</svg>
